# xmcd
#
# Track frame offsets:
#	150
#	36133
#	78055
#	99740
#	127278
#
# Disc length: 2348 seconds
#
# Revision: 0
# Processed by: cddbd v1.5.2PL0 Copyright (c) Steve Scherf et al.
# Submitted via: EasyCDDAExtractor 10.0.3.1
#
DISCID=3a092a05
DTITLE=Paul Butterfield Blues Band - Live at the Pipeline Tavern in Seattle
DYEAR=1976
DGENRE=Blues
TTITLE0=Why Do People Act Like Taht
TTITLE1=The Sky Is Crying
TTITLE2=Shake Your Moneymaker
TTITLE3=Like A Fool
TTITLE4=He's Got All The Whiskey
EXTD=
EXTT0=
EXTT1=
EXTT2=
EXTT3=
EXTT4=
PLAYORDER=
